:SAMPLES-PER-SECOND 30
:FULLY-SPECIFIED
:DEGREES
250
root  11.455 38.1419 10.7498 -88.0229 86.3527 -87.3866
RightUpLeg  -23.8386 6.01216 2.51503
RightLeg  0.865472 2.25067 -1.83839
RightFoot  1.19725 -0.826845 7.58627
RightToes  -2.21189e-009 0 -3.6325e-017
Spine  -3.94431 1.35214 -1.00138
Spine1  18.2453 0.514343 2.712
HEad  -6.90534 2.38662 -3.97089
LeftShoulder1  0.0691109 3.30866 -29.2726
LeftArm  -8.40532 4.12699 -40.1519
LeftForeArm  30.4774 -75.3902 -47.5554
LeftHand  0.0225356 3.27223 -1.89172
RightShoulder  -0.470987 -4.90244 26.8086
RightArm  -7.35839 -24.3378 31.0098
RightForeArm  98.5725 74.225 133.393
RightHand  -0.223372 2.3376 -3.55082
LeftUpLeg  1.74648 17.0408 1.80105
LeftLeg  24.2064 -5.71519 -4.77852
LeftFoot  -22.5885 1.39832 12.7635
LeftToes  -4.03379e-008 1.61488e-010 -5.81581e-011
251
root  12.9783 37.7864 10.8848 -79.2869 86.697 -79.7068
RightUpLeg  -25.0201 6.68586 3.68984
RightLeg  -0.678883 -1.7787 -2.21865
RightFoot  1.18956 -0.587987 5.39687
RightToes  -2.21189e-009 0 -3.6325e-017
Spine  -5.53347 1.80943 -2.44121
Spine1  18.5562 0.546832 4.44746
HEad  -7.27901 2.47571 -4.11912
LeftShoulder1  0.0510176 3.3599 -29.3114
LeftArm  -8.39624 3.95517 -40.2318
LeftForeArm  29.5647 -75.1947 -46.73
LeftHand  0.0216894 3.51004 -1.91189
RightShoulder  -0.488923 -4.95081 26.9389
RightArm  -7.43776 -24.3062 31.2336
RightForeArm  99.0092 74.0395 134.074
RightHand  -0.24355 2.37488 -3.84387
LeftUpLeg  3.25341 19.0088 2.46454
LeftLeg  25.018 -7.41011 -5.35693
LeftFoot  -24.885 1.61326 12.2687
LeftToes  -4.03379e-008 1.61488e-010 -5.81581e-011
252
root  14.6016 37.4066 10.8496 -77.6935 86.1014 -78.7315
RightUpLeg  -26.0193 8.41043 4.65103
RightLeg  2.44035 -4.72775 -1.79245
RightFoot  1.51628 -0.354676 3.26387
RightToes  -2.21189e-009 0 -3.6325e-017
Spine  -6.83094 1.98382 -0.886229
Spine1  19.3197 0.618921 4.10234
HEad  -7.12644 2.7294 -4.52773
LeftShoulder1  0.0337904 3.40869 -29.3368
LeftArm  -8.4981 4.02354 -40.2451
LeftForeArm  28.8152 -74.9554 -45.6533
LeftHand  0.0297926 2.86474 -1.926
RightShoulder  -0.542036 -5.09906 27.1909
RightArm  -7.08356 -23.7548 31.0272
RightForeArm  98.6805 74.2398 133.361
RightHand  -0.21918 2.67885 -3.36551
LeftUpLeg  5.20988 21.4948 4.24439
LeftLeg  26.4894 -9.88732 -5.89949
LeftFoot  -26.8344 1.7361 11.5321
LeftToes  -4.03379e-008 1.61488e-010 -5.81581e-011
253
root  16.2001 37.1707 10.6874 -84.7685 84.8665 -86.1479
RightUpLeg  -26.9159 9.26245 6.15833
RightLeg  7.32471 -5.53795 -1.41005
RightFoot  5.77241 0.0677846 -0.0471539
RightToes  -2.21189e-009 0 -3.6325e-017
Spine  -7.34079 2.0769 2.61012
Spine1  20.0063 0.5563 3.217
HEad  -6.6642 2.41149 -5.15466
LeftShoulder1  0.0591761 3.3377 -29.5052
LeftArm  -8.47156 4.57493 -40.1493
LeftForeArm  28.8962 -74.9575 -45.6405
LeftHand  0.0305198 2.91557 -2.02252
RightShoulder  -0.573038 -5.18758 27.2727
RightArm  -6.50051 -23.5841 30.4041
RightForeArm  98.6729 74.2731 133.249
RightHand  -0.228417 2.55798 -3.54095
LeftUpLeg  7.05424 21.9051 6.32248
LeftLeg  28.0884 -11.31 -6.07909
LeftFoot  -27.4701 1.54629 9.71901
LeftToes  -4.03379e-008 1.61488e-010 -5.81581e-011
254
root  17.7695 36.9818 10.5103 -86.7697 83.0052 -87.933
RightUpLeg  -27.8738 9.66341 8.14959
RightLeg  12.8071 -4.90507 -1.52569
RightFoot  11.6138 0.563097 -2.46775
RightToes  -2.21189e-009 0 -3.6325e-017
Spine  -6.62712 2.36296 7.17338
Spine1  20.3111 0.829579 2.14083
HEad  -6.83799 2.03403 -5.72395
LeftShoulder1  -0.00751617 3.52456 -29.8528
LeftArm  -8.05956 5.12088 -40.0475
LeftForeArm  29.0631 -74.9353 -45.4794
LeftHand  0.0295912 2.95602 -1.85366
RightShoulder  -0.60247 -5.2694 27.3884
RightArm  -5.91336 -23.4634 29.4207
RightForeArm  97.7324 74.4016 132.652
RightHand  -0.266318 2.92316 -3.94607
LeftUpLeg  8.34319 20.3763 8.85394
LeftLeg  31.5336 -10.8409 -6.7369
LeftFoot  -27.0515 1.01392 6.2456
LeftToes  -4.03379e-008 1.61488e-010 -5.81581e-011
255
root  19.3023 36.6919 10.2354 -82.7539 80.4998 -83.0269
RightUpLeg  -28.4365 9.23877 11.1876
RightLeg  20.6863 -3.15722 -1.51556
RightFoot  7.67769 0.665489 -3.65994
RightToes  -2.21189e-009 0 -3.6325e-017
Spine  -4.3837 2.68553 13.6018
Spine1  20.1311 1.88015 -0.31001
HEad  -7.17796 1.77028 -6.87931
LeftShoulder1  -0.0119822 3.53647 -30.4978
LeftArm  -7.94162 5.56405 -40.0682
LeftForeArm  28.1226 -74.6136 -44.1237
LeftHand  0.0316505 2.6803 -1.86682
RightShoulder  -0.590021 -5.23249 27.3847
RightArm  -5.14988 -22.8468 28.3468
RightForeArm  94.7315 74.9314 130.192
RightHand  -0.278202 3.3801 -3.92606
LeftUpLeg  8.17201 20.3766 12.6338
LeftLeg  39.575 -10.686 -8.99724
LeftFoot  -24.2252 0.25954 0.574265
LeftToes  -4.03379e-008 1.61488e-010 -5.81581e-011
